<?xml version="1.0" encoding="utf-8"?>
<!-- Generator: Adobe Illustrator 15.0.0, SVG Export Plug-In . SVG Version: 6.00 Build 0)  -->
<!DOCTYPE svg PUBLIC "-//W3C//DTD SVG 1.1//EN" "http://www.w3.org/Graphics/SVG/1.1/DTD/svg11.dtd">
<svg version="1.1" id="Layer_1" xmlns="http://www.w3.org/2000/svg" xmlns:xlink="http://www.w3.org/1999/xlink" x="0px" y="0px"
	 width="60px" height="60px" viewBox="0 0 160 160" enable-background="new 0 0 160 160" xml:space="preserve">
<g>
	<circle fill="#4D75A1" cx="80" cy="80" r="80"/>
	<path fill="#FFFFFF" d="M74.527,110.88h6.012c0,0,1.813-0.199,2.737-1.199c0.854-0.919,0.829-2.639,0.829-2.639
		s-0.118-8.064,3.626-9.252c3.691-1.174,8.423,7.791,13.451,11.236c3.797,2.613,6.685,2.04,6.685,2.04l13.423-0.187
		c0,0,7.024-0.434,3.691-5.956c-0.274-0.455-1.94-4.087-9.984-11.554c-8.416-7.81-7.292-6.551,2.851-20.067
		c6.181-8.23,8.647-13.255,7.878-15.41c-0.738-2.053-5.277-1.505-5.277-1.505l-15.123,0.094c0,0-1.118-0.153-1.953,0.339
		c-0.813,0.486-1.33,1.626-1.33,1.626s-2.396,6.374-5.588,11.781c-6.729,11.438-9.424,12.04-10.522,11.333
		c-2.561-1.661-1.92-6.651-1.92-10.196c0-11.08,1.68-15.696-3.273-16.89c-1.639-0.398-2.854-0.66-7.053-0.701
		c-5.398-0.059-9.962,0.016-12.547,1.28c-1.72,0.838-3.047,2.719-2.24,2.825c1,0.134,3.268,0.614,4.467,2.246
		c1.545,2.105,1.492,6.837,1.492,6.837s0.892,13.043-2.08,14.662c-2.037,1.115-4.832-1.158-10.838-11.528
		c-3.071-5.311-5.392-11.183-5.392-11.183s-0.446-1.093-1.246-1.682c-0.972-0.713-2.327-0.938-2.327-0.938l-14.363,0.093
		c0,0-2.156,0.059-2.95,1c-0.701,0.832-0.053,2.558-0.053,2.558s11.242,26.313,23.98,39.571
		C61.263,111.681,74.527,110.88,74.527,110.88L74.527,110.88L74.527,110.88z"/>
</g>
</svg>
