<?xml version="1.0" encoding="utf-8"?>
<!-- Generator: Adobe Illustrator 15.0.0, SVG Export Plug-In . SVG Version: 6.00 Build 0)  -->
<!DOCTYPE svg PUBLIC "-//W3C//DTD SVG 1.1//EN" "http://www.w3.org/Graphics/SVG/1.1/DTD/svg11.dtd">
<svg version="1.1" id="Layer_1" xmlns="http://www.w3.org/2000/svg" xmlns:xlink="http://www.w3.org/1999/xlink" x="0px" y="0px"
	 width="60px" height="60px" viewBox="0 0 160 160" enable-background="new 0 0 160 160" xml:space="preserve">
<g>
	<circle fill="#C44DB7" cx="80" cy="80" r="80"/>
	<g>
		<path fill="#FFFFFF" d="M98.455,34.335H61.542c-15.003,0-27.207,12.205-27.207,27.208v36.915
			c0,15.002,12.204,27.207,27.207,27.207h36.913c15.005,0,27.21-12.205,27.21-27.207V61.543
			C125.665,46.54,113.457,34.335,98.455,34.335z M116.476,98.458c0,9.953-8.067,18.021-18.021,18.021H61.542
			c-9.953,0-18.021-8.067-18.021-18.021V61.543c0-9.953,8.068-18.021,18.021-18.021h36.913c9.953,0,18.021,8.068,18.021,18.021
			V98.458z"/>
		<path fill="#FFFFFF" d="M79.998,56.378c-13.023,0-23.621,10.596-23.621,23.62c0,13.027,10.598,23.621,23.621,23.621
			c13.024,0,23.622-10.594,23.622-23.621C103.62,66.975,93.022,56.378,79.998,56.378z M79.998,94.434
			c-7.971,0-14.432-6.464-14.432-14.436c0-7.971,6.461-14.432,14.432-14.432c7.972,0,14.436,6.46,14.436,14.432
			C94.434,87.97,87.97,94.434,79.998,94.434z"/>
		<rect x="98" y="50.863" fill="#FFFFFF" width="11.364" height="11.364"/>
	</g>
</g>
</svg>
