<svg height="700pt" preserveAspectRatio="xMidYMid meet" viewBox="0 0 700 700" width="700pt" xmlns="http://www.w3.org/2000/svg"><path d="m1955 6989c-740-39-1189-181-1475-469-273-274-403-651-462-1345-19-216-19-3134 0-3350 59-693 190-1073 462-1345 295-295 741-432 1529-471 309-15 3017-7 3186 10 568 55 890 144 1159 322 94 62 223 188 290 282 204 288 313 717 346 1366 13 264 13 2761 0 3021-40 778-175 1215-470 1510-246 248-614 388-1170 445-80 8-230 19-335 25-222 12-2833 11-3060-1zm-34-2220c71-15 118-64 154-160 189-500 311-753 501-1039 102-154 206-276 270-319 40-26 57-31 93-29 39 3 48 7 66 38 19 33 20 53 23 444 2 256 0 445-7 503-15 125-49 212-122 308-75 100-88 138-64 189 34 72 27 71 520 71 483 0 491-1 523-59 15-28 18-90 22-621 3-324 9-597 14-605 20-34 51-60 70-60 43 1 110 42 183 112 197 191 429 549 616 953 92 198 114 230 176 259 43 20 65 21 334 24 329 4 382-2 422-49 85-102-45-378-500-1064-220-331-215-323-215-365 0-57 42-114 210-285 256-260 460-504 559-670 94-157 93-268-3-315-40-19-60-20-369-20-404 0-372-10-542 169-249 261-463 469-545 530-143 105-246 144-329 121-75-20-75-21-81-385-5-347-6-352-63-389-71-47-348-63-533-31-358 62-700 246-1008 545-147 143-249 269-414 514-331 490-569 972-672 1359-60 225-41 304 80 328 59 11 574 10 631-2z" transform="matrix(.1 0 0 -.1 0 700)"/></svg>